<?xml version="1.0" standalone="no"?>
<!DOCTYPE svg PUBLIC "-//W3C//DTD SVG 20010904//EN"
 "http://www.w3.org/TR/2001/REC-SVG-20010904/DTD/svg10.dtd">
<svg version="1.0" xmlns="http://www.w3.org/2000/svg"
 width="632.000000pt" height="632.000000pt" viewBox="0 0 632.000000 632.000000"
 preserveAspectRatio="xMidYMid meet">
<metadata>
Created by potrace 1.14, written by Peter Selinger 2001-2017
</metadata>
<g transform="translate(0.000000,632.000000) scale(0.100000,-0.100000)"
fill="#000000" stroke="none">
<path d="M2918 6272 c-110 -78 -173 -157 -185 -234 -9 -58 -5 -142 13 -263 3
-16 6 -52 8 -80 3 -27 7 -72 10 -100 4 -27 8 -70 10 -95 3 -25 7 -70 10 -100
11 -108 22 -219 31 -330 3 -36 8 -85 10 -110 5 -45 11 -119 20 -240 3 -36 7
-90 10 -120 3 -30 7 -83 10 -117 15 -184 100 -271 272 -277 70 -3 120 4 163
21 8 3 18 5 22 5 4 -1 27 18 51 41 49 50 76 119 82 213 2 33 6 100 9 149 10
151 17 256 21 299 2 22 6 84 10 136 3 52 8 111 10 130 2 19 6 67 10 105 3 39
8 84 10 100 2 17 9 80 15 140 6 61 13 121 16 135 2 14 6 40 9 58 3 17 8 49 11
70 9 64 4 185 -10 240 -26 95 -93 187 -181 245 -39 27 -41 27 -220 27 l-180
-1 -67 -47z"/>
<path d="M698 4971 c-55 -18 -129 -60 -173 -99 -63 -55 -125 -162 -155 -269
-19 -70 -24 -201 -8 -220 6 -7 8 -13 4 -13 -11 0 31 -73 61 -106 43 -48 92
-76 298 -167 216 -96 269 -120 414 -188 57 -27 104 -49 106 -49 1 0 64 -29
139 -65 75 -36 141 -65 146 -65 6 0 10 -4 10 -10 0 -5 5 -10 12 -10 7 0 75
-31 153 -68 237 -116 249 -120 335 -117 98 4 173 65 237 192 28 57 36 84 35
126 -1 107 -53 174 -228 292 -94 64 -492 339 -509 353 -5 4 -48 34 -95 67 -47
33 -86 63 -88 67 -2 4 -8 8 -12 8 -8 0 -142 92 -183 126 -9 7 -22 14 -27 14
-6 0 -10 5 -10 10 0 6 -6 10 -14 10 -8 0 -16 4 -18 8 -5 12 -226 162 -257 174
-49 19 -114 18 -173 -1z"/>
<path d="M5485 4981 c-61 -17 -104 -42 -259 -150 -87 -61 -162 -111 -167 -111
-5 0 -9 -4 -9 -8 0 -5 -24 -24 -52 -42 -29 -19 -57 -38 -63 -43 -5 -5 -71 -51
-145 -103 -74 -52 -144 -102 -155 -110 -11 -8 -54 -37 -95 -66 -131 -89 -164
-113 -184 -130 -11 -10 -23 -18 -26 -18 -4 0 -20 -11 -36 -25 -16 -14 -34 -25
-41 -25 -6 0 -13 -4 -15 -8 -1 -5 -32 -28 -68 -52 -127 -86 -170 -154 -164
-255 7 -100 103 -250 191 -297 55 -30 145 -28 209 3 27 13 51 24 54 24 3 1 41
18 85 39 180 87 306 146 310 146 6 0 189 87 247 117 26 13 49 23 50 23 3 -2
61 25 276 126 51 24 95 44 97 44 4 0 188 85 260 121 64 31 130 94 156 146 59
122 14 342 -99 483 -46 57 -49 60 -97 95 -22 17 -42 32 -45 35 -32 33 -157 56
-215 41z"/>
<path d="M1955 2790 c-33 -9 -76 -25 -95 -35 -19 -10 -55 -27 -80 -39 -25 -11
-48 -25 -52 -31 -4 -5 -8 -7 -8 -3 0 4 -33 -9 -72 -29 -115 -57 -379 -183
-383 -183 -2 0 -59 -26 -127 -58 -68 -33 -163 -77 -213 -100 -49 -22 -139 -63
-200 -90 -171 -77 -189 -85 -197 -84 -5 1 -8 -2 -8 -7 0 -5 -8 -12 -17 -15
-33 -11 -122 -105 -129 -136 0 -3 -5 -14 -10 -25 -10 -23 -12 -177 -2 -215 30
-118 82 -215 154 -287 75 -76 149 -112 241 -117 87 -4 138 19 301 134 73 52
142 99 153 105 10 5 19 13 19 17 0 5 7 8 15 8 8 0 15 3 15 8 0 4 12 15 28 24
15 9 63 42 107 73 44 31 101 70 128 87 26 17 47 35 47 39 0 5 4 9 10 9 5 0 37
19 70 43 160 113 189 133 206 145 124 82 375 263 397 285 15 15 27 34 27 42 0
8 4 15 8 15 15 0 29 63 26 114 -5 96 -103 249 -185 292 -15 8 -45 17 -66 20
-21 3 -40 7 -43 9 -3 1 -32 -5 -65 -15z"/>
<path d="M4201 2779 c-97 -43 -191 -192 -192 -302 -1 -59 23 -124 59 -163 36
-36 89 -82 111 -94 39 -20 516 -353 519 -362 2 -4 9 -8 16 -8 7 0 21 -9 31
-20 10 -11 24 -20 31 -20 7 0 14 -4 16 -8 2 -5 35 -30 73 -57 39 -27 117 -83
175 -124 106 -77 150 -108 178 -126 9 -5 22 -15 29 -22 8 -7 27 -20 43 -30 17
-9 30 -21 30 -25 0 -4 6 -8 14 -8 7 0 24 -9 38 -19 37 -30 137 -60 188 -57
127 8 288 139 362 296 76 161 46 364 -68 458 -28 23 -147 90 -174 97 -9 3 -83
36 -174 79 -50 24 -108 49 -128 57 -21 7 -38 17 -38 21 0 4 -7 8 -15 8 -8 0
-29 8 -47 18 -18 10 -55 28 -83 39 -66 28 -191 86 -519 242 -70 34 -132 61
-136 61 -5 0 -10 4 -12 8 -1 5 -38 23 -81 41 -100 41 -184 48 -246 20z"/>
<path d="M3058 2104 c-125 -32 -178 -107 -193 -274 -2 -30 -7 -82 -10 -115 -3
-33 -7 -87 -10 -120 -5 -59 -10 -118 -20 -240 -11 -124 -16 -171 -20 -215 -3
-25 -7 -70 -10 -100 -5 -53 -7 -76 -21 -200 -4 -30 -7 -70 -8 -87 0 -18 -3
-33 -6 -33 -3 0 -5 -15 -6 -33 -1 -32 -13 -135 -20 -172 -5 -26 -5 -153 0
-185 10 -69 60 -190 78 -190 4 0 8 -4 8 -10 0 -14 72 -79 88 -80 6 0 12 -4 12
-8 0 -5 16 -16 35 -25 29 -14 67 -17 211 -17 166 0 178 1 207 22 111 78 186
169 208 252 11 40 13 133 4 176 -2 13 -7 49 -10 80 -5 51 -8 75 -19 177 -14
120 -19 168 -32 303 -2 25 -6 72 -9 105 -3 33 -8 87 -10 120 -2 33 -5 60 -5
60 -1 0 -3 20 -5 44 -2 24 -6 78 -9 120 -13 148 -16 187 -21 261 -15 197 -17
208 -51 270 -46 85 -115 121 -240 124 -38 1 -90 -3 -116 -10z"/>
</g>
</svg>
